<svg id="Layer_1" enable-background="new 0 0 512 512" height="512" viewBox="0 0 512 512" width="512" xmlns="http://www.w3.org/2000/svg"><g><g fill="#3791f4"><path d="m487.01 27.9v221.68l-35.39 1.27-35.43 1.33v-224.28z"/><path d="m263.9 27.9v303.05l-70.81-29.12v-273.93z"/><path d="m375.45 124.87v255.53l-19.62 18.15-18.41 17.08-32.78-32.99v-257.77z"/><path d="m152.3 124.87v189l-70.77-17.85v-171.15z"/></g><path d="m487.01 27.9v221.68l-35.39 1.27v-222.95z" fill="#54a0ff"/><path d="m263.9 27.9v288.52l-35.43-14.59v-273.93z" fill="#54a0ff"/><path d="m375.45 124.87v255.53l-19.62 18.15-15.81-15.91v-257.77z" fill="#54a0ff"/><path d="m152.3 124.87v180.07l-35.38-8.92v-171.15z" fill="#54a0ff"/><path d="m500.42 325.34-1.94 16.26-11.47-11.88-21.72-22.48-49.1 50.01-40.74 41.56-15.04 15.34-25.49 25.95-26.2-25.95-4.08-4.03-40.79-40.32-48.33-47.88-32.27 32.22-6.94-10.7 39.21-39.16 48.33 47.88 40.79 40.32 4.08 4.03 26.2 25.95 25.49-25.95 15.04-15.35 40.74-41.55 49.1-50.01 21.72 22.48z" fill="#ff9f22"/><path d="m510.92 237.03-12.44 104.57-33.19-34.36-7.96-9.54-41.14 41.91-40.74 41.55-15.04 15.35-25.49 25.95-26.2-25.95-4.08-4.03-40.79-40.32-48.33-47.88-39.21 39.16-12.44-19.27 51.65-51.6 48.33 47.87 40.79 40.33 30.28 29.98 40.53-41.3 40.74-41.55 24.07-24.52-33.91-33.91 9.84-1.17 5.92-.71 64.9-7.7z" fill="#ffc14f"/><path d="m190.08 389.53c0 44.76-31.05 82.24-72.8 92.03v.05c-5.4 1.27-10.91 2.04-16.57 2.35-.1.05-.25.05-.41 0-1.58.1-3.11.15-4.69.15-13.51 0-26.41-2.86-38.03-8-33.24-14.63-56.49-47.87-56.49-86.57 0-52.21 42.32-94.57 94.52-94.57 1.58 0 3.16.05 4.69.1 18.2.92 35.08 6.93 49.15 16.77 16.67 11.57 29.47 28.4 35.94 48.08 3.06 9.31 4.69 19.26 4.69 29.61z" fill="#f7d33e"/><path d="m190.08 389.53c0 44.76-31.05 82.24-72.8 92.03v.05c-5.4 1.27-10.91 2.04-16.57 2.35-.1.05-.25.05-.41 0-11.68-.61-22.74-3.36-32.94-7.85-33.29-14.63-56.54-47.87-56.54-86.57 0-50.53 39.67-91.82 89.48-94.47 18.2.92 35.08 6.93 49.15 16.77 16.67 11.57 29.47 28.4 35.94 48.08 3.06 9.31 4.69 19.26 4.69 29.61z" fill="#ffde50"/><path d="m169.84 389.53c0 38.9-29.88 70.87-67.91 74.03-2.09.2-4.18.31-6.32.31-6.53 0-12.8-.87-18.76-2.4-31.97-8.31-55.52-37.37-55.52-71.94 0-41.04 33.24-74.33 74.28-74.33 2.14 0 4.28.1 6.37.31 37.98 3.2 67.86 35.12 67.86 74.02z" fill="#f4af03"/><path d="m169.84 389.53c0 38.9-29.88 70.87-67.91 74.03-4.28-.36-8.41-1.07-12.39-2.09-31.97-8.31-55.52-37.37-55.52-71.94 0-38.9 29.88-70.87 67.96-74.03 37.98 3.21 67.86 35.13 67.86 74.03z" fill="#ffbd00"/><path d="m95.58 382.92c-5.87 0-10.64-4.78-10.64-10.65s4.77-10.65 10.64-10.65 10.64 4.78 10.64 10.65c0 3.5 2.83 6.33 6.33 6.33s6.33-2.83 6.33-6.33c0-10.63-7.16-19.61-16.91-22.39v-5.21c0-3.5-2.83-6.33-6.33-6.33s-6.33 2.83-6.33 6.33v5.18c-9.81 2.75-17.03 11.75-17.03 22.43 0 12.85 10.45 23.31 23.3 23.31 5.87 0 10.64 4.78 10.64 10.65s-4.77 10.65-10.64 10.65-10.64-4.78-10.64-10.65c0-3.5-2.83-6.33-6.33-6.33s-6.33 2.83-6.33 6.33c0 10.68 7.22 19.68 17.03 22.43v5.73c0 3.5 2.83 6.33 6.33 6.33s6.33-2.83 6.33-6.33v-5.76c9.75-2.79 16.91-11.76 16.91-22.39 0-12.88-10.45-23.33-23.3-23.33z" fill="#fff"/></g></svg>